<?xml version="1.0" encoding="UTF-8"?><svg xmlns="http://www.w3.org/2000/svg" width="65" height="70" viewBox="0 0 65 70">
    <g fill="none" fill-rule="nonzero">
        <path fill="#6236FF" d="M61.917 0H21.664c-1.345 0-2.438 1.073-2.438 2.393v26.23L6.48 14.698a2.075 2.075 0 0 0-1.431-.671 2.08 2.08 0 0 0-1.497.518L.687 17.07a2.01 2.01 0 0 0-.157 2.873l18.004 19.671c.196.215.432.38.692.496v15.828h-4.061c-.578 0-1.045.459-1.045 1.025 0 .566.467 1.025 1.045 1.025h28.803c.192 0 .348.154.348.342v2.108c0 3.043 1.456 5.759 3.72 7.511h-37.02c-4.22 0-7.654-3.37-7.654-7.511V58.33c0-.188.157-.342.349-.342h6.904c.577 0 1.045-.459 1.045-1.025 0-.566-.468-1.025-1.045-1.025H3.71c-1.344 0-2.438 1.073-2.438 2.392v2.108C1.273 65.71 5.644 70 11.017 70H54.61c5.373 0 9.744-4.29 9.744-9.562V32.534c0-.566-.468-1.025-1.045-1.025s-1.045.459-1.045 1.025v27.904c0 4.142-3.433 7.512-7.654 7.512h-.552c-4.22 0-7.654-3.37-7.654-7.512v-2.107c0-1.32-1.093-2.393-2.438-2.393H21.315V40.851l2.981 1.455a1.674 1.674 0 0 0 1.85-.247c.51-.45.686-1.148.448-1.78l-1.602-4.252a2.01 2.01 0 0 0-.508-1.659l-3.169-3.461V2.393c0-.189.156-.342.349-.342h40.253c.192 0 .348.153.348.342v13.371c0 .567.468 1.026 1.045 1.026s1.045-.459 1.045-1.026V2.393C64.355 1.073 63.26 0 61.917 0zM4.937 16.08l1.24 1.356-2.84 2.505-1.242-1.356 2.842-2.505zm-.205 5.387l.644-.568L20.72 37.665l-.643.567L4.732 21.467zm17.559 17.57l1.206-1.064.764 2.025-1.97-.96zm-.016-2.743L6.93 19.528l.644-.567 15.344 16.766-.643.567z"/>
        <path fill="#FA6400" d="M62.661 19.194c-.935 0-1.693.47-1.693 1.053v8.054c0 .582.758 1.054 1.693 1.054.936 0 1.694-.472 1.694-1.054v-8.054c0-.582-.758-1.053-1.694-1.053zM29.355 20.323a3.39 3.39 0 0 0-3.387 3.387 3.39 3.39 0 0 0 3.387 3.387 3.39 3.39 0 0 0 3.387-3.387 3.391 3.391 0 0 0-3.387-3.387zm0 4.794a1.408 1.408 0 0 1 0-2.815 1.41 1.41 0 0 1 1.407 1.408c0 .776-.631 1.407-1.407 1.407zM37.11 25.968h4.811c.542 0 .982-.506.982-1.13 0-.623-.44-1.128-.982-1.128h-4.81c-.542 0-.982.505-.982 1.129 0 .623.44 1.129.982 1.129z"/>
        <path fill="#6236FF" d="M55.387 25.968H37.194c-.588 0-1.065.505-1.065 1.129 0 .623.477 1.129 1.065 1.129h18.193c.588 0 1.065-.506 1.065-1.13 0-.623-.477-1.128-1.065-1.128zM36.697 22.58h.012c.932-.003 1.683-.512 1.678-1.135-.006-.622-.762-1.122-1.689-1.122h-.028c-.934.003-1.676.512-1.67 1.136.005.62.769 1.122 1.697 1.122z"/>
        <path fill="#FA6400" d="M29.355 31.613A3.39 3.39 0 0 0 25.968 35a3.39 3.39 0 0 0 3.387 3.387A3.39 3.39 0 0 0 32.742 35a3.391 3.391 0 0 0-3.387-3.387zm0 4.794A1.408 1.408 0 1 1 30.763 35c0 .777-.632 1.408-1.408 1.408zM37.11 36.129h4.811c.542 0 .982-.506.982-1.129s-.44-1.129-.982-1.129h-4.81c-.542 0-.982.506-.982 1.129s.44 1.129.982 1.129z"/>
        <path fill="#6236FF" d="M55.387 36.129H37.194c-.588 0-1.065.505-1.065 1.13 0 .622.477 1.128 1.065 1.128h18.193c.588 0 1.065-.506 1.065-1.129 0-.624-.477-1.129-1.065-1.129zM36.697 33.871h.012c.932-.004 1.683-.512 1.678-1.136-.006-.621-.762-1.122-1.689-1.122h-.028c-.934.004-1.676.513-1.67 1.136.005.622.769 1.122 1.697 1.122z"/>
        <path fill="#FA6400" d="M29.355 42.903a3.39 3.39 0 0 0-3.387 3.388 3.39 3.39 0 0 0 3.387 3.386 3.39 3.39 0 0 0 3.387-3.386 3.391 3.391 0 0 0-3.387-3.388zm0 4.795a1.408 1.408 0 0 1 0-2.815 1.41 1.41 0 0 1 1.407 1.408c0 .776-.631 1.407-1.407 1.407zM37.11 47.42h4.811c.542 0 .982-.506.982-1.13 0-.623-.44-1.129-.982-1.129h-4.81c-.542 0-.982.506-.982 1.13 0 .623.44 1.128.982 1.128z"/>
        <path fill="#6236FF" d="M37.194 49.677h18.193c.588 0 1.065-.505 1.065-1.129s-.477-1.129-1.065-1.129H37.194c-.588 0-1.065.505-1.065 1.13 0 .623.477 1.128 1.065 1.128zM36.697 44.032h.012c.932-.004 1.683-.513 1.678-1.136-.006-.621-.762-1.122-1.689-1.122h-.028c-.934.004-1.676.512-1.67 1.136.005.621.769 1.122 1.697 1.122z"/>
        <path fill="#FA6400" d="M56.452 13.664V7.787c0-.56-.471-1.013-1.052-1.013H27.02c-.58 0-1.051.454-1.051 1.013v5.877c0 .56.47 1.013 1.051 1.013H55.4c.58 0 1.052-.453 1.052-1.013zm-2.103-1.013H28.07V8.8H54.35v3.85z"/>
    </g>
</svg>
