<?xml version="1.0" encoding="UTF-8"?><svg xmlns="http://www.w3.org/2000/svg" width="69" height="70" viewBox="0 0 69 70">
    <g fill="none" fill-rule="nonzero">
        <path fill="#6236FF" d="M47.79 43.028c13.723-10.025 12.701-31.099-1.806-39.77a.944.944 0 0 0-.143-.084C37.223-1.895 26.174-.872 18.56 6.097a1.04 1.04 0 0 0-.077 1.452.998.998 0 0 0 1.428.077c4.963-4.542 11.729-6.45 18.248-5.19-.093 1.12-.86 2.334-1.698 3.145-1.646 1.593-8.46.218-10.935 5.726-.346.768-.823 2.133-1.251 2.816-.217-.771-.395-1.983-1.35-2.805-.573-.493-1.186-.711-1.822-.649-1.145.114-1.938 1.126-2.413 1.73-1.002 1.278-.556 2.426-.23 3.264.3.775.56 1.444.077 2.559-.465 1.07.5 2.237.816 2.62 1.3 1.573 4.558 4.18 6.544 3.68 4.848-1.227 6.22 6.815 9.447 7.652 2.417.628 4.741 2.05 4.448 3.346-.903 3.99-4.622 3.6-6.954 4.651-1.284.58-3.61 2.225-5.17 4.237a21.1 21.1 0 0 1-3.541-1.518c.152-.362.32-.74.506-1.138 1.689-3.608 1.577-5.487-2.418-8.843-1.914-1.609-1.253-3.784-.361-5.325a2.206 2.206 0 0 0-.64-2.9c-1.441-1.004-5.66-3.575-7.63-6.534a21.631 21.631 0 0 1 3.671-7.603 1.041 1.041 0 0 0-.186-1.443.998.998 0 0 0-1.417.19c-5.646 7.488-6.665 18.257-1.26 27.052 7.123 11.589 22.251 14.625 33.17 6.846a.93.93 0 0 0 .229-.164zm-.293-2.353c-.173-1.588 1.241-3.97 2.517-6.12 1.673-2.818 3.253-5.479 1.997-7.38-1.19-1.803-2.949-1.076-5.006-2.804-1.205-1.013-2.327-2.295-1.667-5.803.187-.994 1.126-2.232 2.645-3.486.989-.816 1.359-2.197.92-3.435-.176-.494-.183-.813-.136-.937.725-1.895-2.346-2.914-2.612-4.923 11.91 8.224 12.494 25.815 1.342 34.888zM13.06 20.785c2.304 2.596 5.467 4.521 7.012 5.597a.12.12 0 0 1 .039.158c-1.8 3.108-1.502 6.008.816 7.955 3.834 3.221 2.924 3.914 1.448 7.333-6.566-4.435-10.484-12.526-9.315-21.043zM29.84 44.99c1.254-1.363 2.875-2.514 3.816-2.938 1.925-.868 6.902-.757 8.104-6.07.63-2.784-2.518-4.92-5.918-5.801-1.853-.481-4.118-9.25-10.433-7.656-.127.03-.752-.045-1.921-.786-1.63-1.032-2.814-2.36-3.03-2.865.718-1.807.215-3.102-.121-3.968-.309-.795-.315-.91-.07-1.223.183-.232.736-.937 1.03-.966.068-.008.188.057.32.171.835.718.41 3.169 2.25 3.525 1.968.38 2.75-2.595 3.495-4.25 2.014-4.482 8.041-2.721 10.49-5.092 1.272-1.232 2.075-2.727 2.281-4.154a21.15 21.15 0 0 1 4.074 1.679c-.618 2.995 1.935 4.715 2.6 5.601-.162.609-.097 1.33.194 2.148.147.416.03.874-.292 1.14-1.336 1.102-3.002 2.812-3.357 4.696-.829 4.405.731 6.403 2.366 7.777 3.8 3.192 7.053-.024 2.566 7.532-1.683 2.835-3.563 6.002-2.547 8.472-4.553 2.993-10.212 4.232-15.897 3.028z"/>
        <path fill="#FA6400" d="M16.104 59.57c.199.28.509.43.824.43.812 0 1.313-.95.822-1.646-1.333-1.89-7.236-5.045-10.387-8.225-1.223-1.233-3.365-5.493-3.927-7.289L2.05 37.733a.51.51 0 0 1 .971-.306c1.616 3.525 1.755 4.243 2.565 5.312a20.58 20.58 0 0 0 7.001 5.868l4.323 4.446a.998.998 0 0 0 .72.306c.896 0 1.357-1.115.72-1.77L13.987 47.1l-1.72-2.733c-.29-.61.481-1.205.99-.667 5.901 6.347 5.62 6.155 5.924 6.307l6.333 3.147c3.458 1.718 3.21 5.464 3.293 5.73.051.572.544.991 1.104.94.559-.053.97-.558.918-1.13l-.09-.993c-.247-2.75-1.91-5.209-4.337-6.415l-6.168-3.065-5.51-5.957c-.875-.926-2.267-1.112-3.311-.444-.942.603-1.388 1.727-1.188 2.79a18.604 18.604 0 0 1-3.035-3.146c-.583-.768-.6-1.117-2.32-4.898-.506-1.14-1.72-1.772-2.884-1.507-1.417.324-2.281 1.798-1.893 3.229 1.868 6.879 1.275 4.748 1.403 5.162.64 2.064 2.932 6.635 4.44 8.156 1.72 1.735 4.132 3.42 6.26 4.906.883.617 3.39 2.322 3.908 3.057zM66.615 35.137c-1.24-.426-2.582.17-3.122 1.386-1.738 3.822-1.757 4.176-2.341 4.947a18.59 18.59 0 0 1-3.036 3.147c.2-1.064-.246-2.188-1.188-2.79-1.044-.669-2.437-.483-3.32.45l-5.503 5.951-6.168 3.066c-4.602 2.287-4.34 7.163-4.433 7.454-.051.571.36 1.077.918 1.13a1.022 1.022 0 0 0 1.104-.94c.082-.265-.167-4.054 3.298-5.775 6.63-3.32 6.389-3.11 6.628-3.369l5.624-6.08c.522-.552 1.285.052.996.66l-1.719 2.733-4.363 4.489c-.638.656-.176 1.771.72 1.771.77 0 .803-.539 5.043-4.754 3.947-2.014 6.972-5.34 7.83-7.27l1.759-3.96c.253-.57 1.124-.284.938.402l-1.374 5.06c-.562 1.796-2.705 6.057-3.927 7.29-3.144 3.173-9.038 6.325-10.38 8.215-.492.69 0 1.65.82 1.65.313 0 .622-.148.821-.428 1.022-1.435 6.937-4.7 10.165-7.957 1.508-1.522 3.801-6.094 4.442-8.16.128-.415-.397 1.463 1.39-5.114.368-1.357-.344-2.765-1.622-3.204z"/>
        <path fill="#6236FF" d="M30.93 61.667H18.238a2.406 2.406 0 0 0-2.404 2.404v3.525A2.406 2.406 0 0 0 18.237 70H30.93a2.406 2.406 0 0 0 2.402-2.404v-3.525a2.406 2.406 0 0 0-2.402-2.404zm.33 5.93a.33.33 0 0 1-.33.33H18.238a.33.33 0 0 1-.33-.33V64.07a.33.33 0 0 1 .33-.33H30.93a.33.33 0 0 1 .33.33v3.525zM50.097 61.667H37.403A2.406 2.406 0 0 0 35 64.07v3.525A2.406 2.406 0 0 0 37.403 70h12.694a2.406 2.406 0 0 0 2.403-2.404v-3.525a2.406 2.406 0 0 0-2.403-2.404zm.33 5.93a.33.33 0 0 1-.33.33H37.403a.33.33 0 0 1-.33-.33V64.07a.33.33 0 0 1 .33-.33h12.694a.33.33 0 0 1 .33.33v3.525z"/>
    </g>
</svg>
