<?xml version="1.0" encoding="UTF-8"?><svg xmlns="http://www.w3.org/2000/svg" width="58" height="70" viewBox="0 0 58 70">
    <g fill="none" fill-rule="nonzero">
        <path fill="#FA6400" d="M42.708 25.04h-3.117a10.843 10.843 0 0 0-.725-1.75l2.204-2.204c.276-.275.427-.641.427-1.03 0-.39-.151-.757-.427-1.032l-2.593-2.594a1.46 1.46 0 0 0-2.063 0l-2.204 2.204a10.836 10.836 0 0 0-1.75-.725v-3.117A1.46 1.46 0 0 0 31 13.333h-3.668a1.46 1.46 0 0 0-1.458 1.459v3.117a10.85 10.85 0 0 0-1.75.725l-2.205-2.204a1.46 1.46 0 0 0-2.062 0l-2.594 2.593a1.449 1.449 0 0 0-.427 1.032c0 .39.151.756.427 1.031l2.204 2.204a10.836 10.836 0 0 0-.725 1.75h-3.117a1.46 1.46 0 0 0-1.458 1.46v3.668a1.46 1.46 0 0 0 1.458 1.458h3.117c.19.604.433 1.19.725 1.75l-2.204 2.204a1.46 1.46 0 0 0 0 2.063l2.594 2.594a1.46 1.46 0 0 0 2.063 0l2.204-2.204c.56.292 1.146.534 1.75.725v3.117a1.46 1.46 0 0 0 1.458 1.458h3.669a1.46 1.46 0 0 0 1.458-1.458v-3.117a10.84 10.84 0 0 0 1.75-.725l2.205 2.204a1.46 1.46 0 0 0 2.063 0l2.593-2.594c.276-.275.427-.642.427-1.031 0-.39-.151-.756-.427-1.032l-2.204-2.204c.292-.56.535-1.146.725-1.75h3.117a1.46 1.46 0 0 0 1.459-1.458v-3.669a1.46 1.46 0 0 0-1.459-1.458zm-.6 4.528h-3.301c-.478 0-.894.329-1.002.794a8.8 8.8 0 0 1-1.095 2.645 1.03 1.03 0 0 0 .146 1.27l2.335 2.335-1.746 1.745-2.334-2.334a1.03 1.03 0 0 0-1.271-.147 8.808 8.808 0 0 1-2.644 1.095 1.03 1.03 0 0 0-.795 1.003v3.301h-2.468v-3.301c0-.479-.33-.894-.795-1.003a8.796 8.796 0 0 1-2.644-1.095 1.03 1.03 0 0 0-1.271.147l-2.335 2.334-1.745-1.745 2.335-2.334a1.03 1.03 0 0 0 .146-1.271 8.804 8.804 0 0 1-1.095-2.645 1.03 1.03 0 0 0-1.002-.794h-3.302v-2.469h3.302c.478 0 .893-.329 1.002-.794a8.804 8.804 0 0 1 1.095-2.644 1.03 1.03 0 0 0-.146-1.271l-2.335-2.335 1.745-1.745 2.335 2.334a1.03 1.03 0 0 0 1.27.147 8.8 8.8 0 0 1 2.645-1.095 1.03 1.03 0 0 0 .795-1.002v-3.302H30.4v3.302c0 .478.33.893.795 1.002.938.22 1.827.588 2.644 1.095a1.03 1.03 0 0 0 1.27-.147l2.335-2.334 1.746 1.745-2.335 2.335a1.03 1.03 0 0 0-.146 1.27 8.805 8.805 0 0 1 1.095 2.645 1.03 1.03 0 0 0 1.002.794h3.301v2.469z"/>
        <path fill="#6236FF" d="M28.75 23.333a5.423 5.423 0 0 0-5.417 5.417 5.423 5.423 0 0 0 5.417 5.417 5.423 5.423 0 0 0 5.417-5.417 5.423 5.423 0 0 0-5.417-5.417zm0 8.812a3.398 3.398 0 0 1-3.395-3.395 3.398 3.398 0 0 1 3.395-3.395 3.398 3.398 0 0 1 3.395 3.395 3.398 3.398 0 0 1-3.395 3.395z"/>
        <path fill="#FA6400" d="M4.736 27.5H1.097c-.606 0-1.097.373-1.097.833 0 .46.491.834 1.097.834h3.64c.605 0 1.096-.373 1.096-.834 0-.46-.49-.833-1.097-.833zM56.403 27.5h-3.64c-.605 0-1.096.373-1.096.833 0 .46.49.834 1.097.834h3.639c.606 0 1.097-.373 1.097-.834 0-.46-.491-.833-1.097-.833zM12.22 44.447a.959.959 0 0 0-1.357 0l-2.249 2.25a.959.959 0 0 0 1.356 1.356l2.25-2.25a.959.959 0 0 0 0-1.356zM48.886 8.614a.959.959 0 0 0-1.356 0l-2.25 2.25a.959.959 0 0 0 1.357 1.355l2.249-2.249a.959.959 0 0 0 0-1.356zM29.167 0c-.46 0-.834.491-.834 1.097v3.64c0 .605.373 1.096.834 1.096.46 0 .833-.49.833-1.097V1.097C30 .491 29.627 0 29.167 0zM48.886 46.697l-2.25-2.25a.959.959 0 0 0-1.355 1.356l2.249 2.25a.959.959 0 0 0 1.356-1.356zM12.22 10.863L9.97 8.614A.959.959 0 0 0 8.614 9.97l2.25 2.25a.959.959 0 0 0 1.355-1.357z"/>
        <path fill="#6236FF" d="M49.16 24.69c-1.108-9.412-8.6-16.874-18.006-18.016a1.029 1.029 0 0 0-1.146.894 1.026 1.026 0 0 0 .897 1.141c8.542 1.037 15.208 7.707 16.21 16.219a1.028 1.028 0 0 0 1.142.898c.565-.065.969-.575.903-1.137zM49.905 28.862a1.056 1.056 0 0 0-1.186.9c-.724 5.591-3.952 10.525-8.855 13.536-2.114 1.298-3.376 3.52-3.376 5.942v4.273H22.842v-4.368a6.805 6.805 0 0 0-3.271-5.784c-5.707-3.454-9.113-9.429-9.114-15.983 0-9.463 7.249-17.478 16.861-18.642.582-.07.995-.59.923-1.158a1.057 1.057 0 0 0-1.184-.903C16.437 7.96 8.333 16.893 8.333 27.378c0 3.618.963 7.183 2.783 10.31a21.217 21.217 0 0 0 7.337 7.44 4.723 4.723 0 0 1 2.265 4.017v4.52c-1.08.366-1.858 1.37-1.858 2.548v1.48c0 .627.221 1.203.59 1.662a2.646 2.646 0 0 0-.59 1.662v1.48c0 1.489 1.239 2.7 2.76 2.7h3.34v2.347c0 1.354 1.126 2.456 2.51 2.456h4.389c1.385 0 2.511-1.102 2.511-2.456v-2.347h3.339c1.522 0 2.76-1.212 2.76-2.7v-1.48c0-.627-.221-1.203-.589-1.662.368-.459.59-1.035.59-1.661v-1.48c0-1.18-.779-2.183-1.859-2.55V49.24c0-1.704.89-3.268 2.382-4.183 5.444-3.343 9.028-8.823 9.832-15.034a1.042 1.042 0 0 0-.92-1.161zM32.247 67.544a.388.388 0 0 1-.388.379h-4.388a.388.388 0 0 1-.387-.379v-2.347h5.163v2.347zm6.1-5.047a.639.639 0 0 1-.638.623H21.621a.639.639 0 0 1-.637-.623v-1.48c0-.338.292-.624.637-.624H37.71c.345 0 .637.286.637.624v1.48zm0-4.804a.639.639 0 0 1-.638.623H21.621a.639.639 0 0 1-.637-.623v-1.48c0-.338.292-.623.637-.623H37.71c.345 0 .637.285.637.623v1.48z"/>
    </g>
</svg>
