<?xml version="1.0" encoding="UTF-8"?><svg xmlns="http://www.w3.org/2000/svg" width="70" height="70" viewBox="0 0 70 70">
    <g fill="none" fill-rule="nonzero">
        <path fill="#FA6400" d="M34.5 52C46.907 52 57 41.907 57 29.5S46.907 7 34.5 7 12 17.093 12 29.5 22.093 52 34.5 52zm0-2.25c-6.616 0-12.484-3.204-16.182-8.127a16.828 16.828 0 0 1 6.923-9.36l3.02 10.418 6.239-4.99 6.237 4.99 3.02-10.416a16.826 16.826 0 0 1 6.927 9.356c-3.698 4.923-9.567 8.129-16.184 8.129zM27.75 20.5a6.757 6.757 0 0 1 6.75-6.75 6.757 6.757 0 0 1 6.75 6.75 6.757 6.757 0 0 1-6.75 6.75 6.757 6.757 0 0 1-6.75-6.75zm6.75 13.836l-3.275-4.505c1.066-.21 2.158-.331 3.276-.331 1.117 0 2.21.122 3.273.332L34.5 34.336zm5.6-3.879c.562.198 1.106.432 1.64.687l-2.227 7.675-3.472-2.777 4.06-5.585zm-11.201 0l4.06 5.585-3.472 2.777-2.229-7.677a16.923 16.923 0 0 1 1.64-.686zM34.5 9.25c11.166 0 20.25 9.084 20.25 20.25a20.13 20.13 0 0 1-2.511 9.75 19.113 19.113 0 0 0-12.681-11.31A9 9 0 0 0 43.5 20.5c0-4.962-4.038-9-9-9s-9 4.038-9 9a8.996 8.996 0 0 0 3.942 7.439A19.1 19.1 0 0 0 16.763 39.25a20.107 20.107 0 0 1-2.513-9.75c0-11.166 9.084-20.25 20.25-20.25z"/>
        <path fill="#6236FF" d="M50 32.475l2.62.525c.192-.937.319-1.89.38-2.829L50.333 30A18.458 18.458 0 0 1 50 32.475zM53 27.849c-.256-3.576-1.634-6.982-3.985-9.849L47 19.386c2.058 2.508 3.263 5.487 3.487 8.614L53 27.849zM26 16.759L24.67 15c-.583.436-1.145.913-1.67 1.416L24.537 18c.459-.441.95-.86 1.463-1.241zM20.274 26c.196-.707.44-1.403.726-2.073L18.832 23A18.608 18.608 0 0 0 18 25.374l2.274.626zM23 19.341L21.307 18c-.477.604-.917 1.24-1.307 1.895L21.856 21c.34-.575.726-1.132 1.144-1.659zM33 45h3v3h-3zM33 40h3v3h-3z"/>
        <path fill="#6236FF" d="M70 56.452H55.27v-4.517h-2.098a6.26 6.26 0 0 0 1.006-3.353 6.19 6.19 0 0 0 5.334-3.083l1.689-2.933c1.11-1.929 1.07-4.29-.004-6.174a6.21 6.21 0 0 0 3.081-5.344v-3.387a6.21 6.21 0 0 0-3.08-5.343c1.073-1.884 1.113-4.246.003-6.174l-1.69-2.933a6.186 6.186 0 0 0-5.333-3.084c-.009-2.168-1.152-4.233-3.075-5.347l-2.925-1.693c-1.924-1.113-4.28-1.073-6.158.003C40.93 1.215 38.91 0 36.69 0h-3.38c-2.22 0-4.24 1.215-5.329 3.089-1.88-1.076-4.234-1.117-6.157-.003l-2.926 1.693c-1.923 1.115-3.066 3.18-3.075 5.348a6.19 6.19 0 0 0-5.333 3.084L8.8 16.144c-1.11 1.928-1.07 4.29.004 6.174a6.208 6.208 0 0 0-3.082 5.343v3.387a6.21 6.21 0 0 0 3.08 5.344C7.73 38.275 7.69 40.637 8.8 42.566l1.69 2.933a6.186 6.186 0 0 0 5.333 3.083 6.244 6.244 0 0 0 1.006 3.353H14.73v4.517H0l5.406 6.774L0 70h25.991v-6.774H44.01V70H70l-5.406-6.774L70 56.452zm-50.647-2.258l2.47 1.43c1.923 1.112 4.278 1.073 6.156-.003 1.091 1.874 3.11 3.089 5.332 3.089h3.378c2.222 0 4.241-1.215 5.33-3.09 1.878 1.077 4.233 1.118 6.157.004l2.471-1.43h2.37v6.774H16.983v-6.774h2.37zM12.44 44.37l-1.69-2.933c-.873-1.519-.622-3.46.613-4.727l1.331-1.362-1.832-.514a3.952 3.952 0 0 1-2.888-3.786v-3.387a3.955 3.955 0 0 1 2.887-3.786l1.832-.514-1.33-1.363c-1.236-1.264-1.487-3.208-.613-4.726l1.689-2.933c.873-1.518 2.68-2.27 4.387-1.832l1.845.475-.473-1.85c-.44-1.714.312-3.521 1.826-4.398L22.95 5.04c1.513-.877 3.449-.625 4.714.614l1.359 1.335.512-1.837c.474-1.703 2.027-2.894 3.776-2.894h3.378c1.749 0 3.302 1.191 3.777 2.895l.512 1.837 1.36-1.335c1.262-1.238 3.199-1.492 4.713-.614l2.926 1.694c1.515.876 2.266 2.685 1.827 4.398l-.473 1.85 1.844-.474a3.94 3.94 0 0 1 4.387 1.83l1.69 2.934c.873 1.519.622 3.46-.613 4.726l-1.331 1.363 1.832.514a3.953 3.953 0 0 1 2.886 3.785v3.387a3.955 3.955 0 0 1-2.887 3.787l-1.832.514 1.33 1.363c1.236 1.264 1.487 3.207.613 4.726l-1.689 2.933c-.873 1.519-2.679 2.27-4.387 1.831l-1.845-.474.473 1.85c.44 1.713-.312 3.52-1.826 4.398L47.05 53.67c-1.514.877-3.451.624-4.714-.615l-1.359-1.334-.512 1.837c-.474 1.702-2.027 2.894-3.776 2.894h-3.378c-1.749 0-3.302-1.192-3.777-2.895l-.512-1.837-1.36 1.334c-1.26 1.239-3.199 1.492-4.713.615l-2.926-1.694c-1.515-.876-2.266-2.685-1.827-4.399l.473-1.85-1.844.475c-1.706.438-3.512-.313-4.385-1.831zM8.29 63.226L4.686 58.71H14.73v3.951l6.757 5.08h-16.8l3.602-4.515zm15.45 3.387l-4.505-3.387h4.504v3.387zm27.025-3.387l-4.504 3.387v-3.387h4.504zm14.548 4.516h-16.8l6.757-5.08V58.71h10.043l-3.602 4.516 3.602 4.516z"/>
    </g>
</svg>
