<?xml version="1.0" encoding="UTF-8"?>
<svg width="60px" height="62px" viewBox="0 0 60 62" version="1.1" xmlns="http://www.w3.org/2000/svg" xmlns:xlink="http://www.w3.org/1999/xlink">
    <!-- Generator: Sketch 59.1 (86144) - https://sketch.com -->
    <title>Analytics</title>
    <desc>Created with Sketch.</desc>
    <defs>
        <path d="M23.3343852,46.3343852 C36.0369344,46.3343852 46.3343852,36.0369344 46.3343852,23.3343852 C46.3343852,10.6318359 36.0369344,0.334385154 23.3343852,0.334385154 C10.6318359,0.334385154 0.334385154,10.6318359 0.334385154,23.3343852 C0.334385154,36.0369344 10.6318359,46.3343852 23.3343852,46.3343852 Z" id="path-1"></path>
    </defs>
    <g id="Company" stroke="none" stroke-width="1" fill="none" fill-rule="evenodd">
        <g transform="translate(-530.000000, -2028.000000)" id="Analytics">
            <g transform="translate(530.000000, 2028.000000)">
                <g id="analysis-(1)">
                    <g id="Oval-Copy-4" transform="translate(0.215816, 4.123508)">
                        <mask id="mask-2" fill="white">
                            <use xlink:href="#path-1"></use>
                        </mask>
                        <use id="Mask" stroke="#000000" stroke-width="0.953846154" fill="#FFFFFF" fill-rule="nonzero" xlink:href="#path-1"></use>
                    </g>
                    <g id="Group" transform="translate(1.815385, 0.000000)" fill-rule="nonzero">
                        <path d="M17.6846154,38 C15.7517719,38 14.1846154,36.4328435 14.1846154,34.5 C14.1846154,32.5671565 15.7517719,31 17.6846154,31 C19.6174589,31 21.1846154,32.5671565 21.1846154,34.5 C21.1846154,36.4328435 19.6174589,38 17.6846154,38 Z" id="Path-Copy-11" fill="#FADB18"></path>
                        <path d="M30.6846154,25 C28.7517719,25 27.1846154,23.4328435 27.1846154,21.5 C27.1846154,19.5671565 28.7517719,18 30.6846154,18 C32.6174589,18 34.1846154,19.5671565 34.1846154,21.5 C34.1846154,23.4328435 32.6174589,25 30.6846154,25 Z" id="Path-Copy-12" fill="#FADB18"></path>
                        <path d="M30.5245734,25.0530905 C27.9371222,25.0530905 25.8392073,22.9551757 25.8392073,20.3677244 C25.8392073,17.7802732 27.9371222,15.6823583 30.5245734,15.6823583 C33.1120246,15.6823583 35.2099395,17.7802732 35.2099395,20.3677244 C35.2099395,22.9551757 33.1120246,25.0530905 30.5245734,25.0530905 Z" id="Path" stroke="#000000" stroke-width="0.953846154"></path>
                        <path d="M46.6846154,10 C44.7517719,10 43.1846154,8.43284348 43.1846154,6.5 C43.1846154,4.56715652 44.7517719,3 46.6846154,3 C48.6174589,3 50.1846154,4.56715652 50.1846154,6.5 C50.1846154,8.43284348 48.6174589,10 46.6846154,10 Z" id="Path-Copy-13" fill="#FADB18"></path>
                        <path d="M16.8023152,38.656912 C14.2148639,38.656912 12.1169491,36.5589972 12.1169491,33.9715459 C12.1169491,31.3840947 14.2148639,29.2861799 16.8023152,29.2861799 C19.3897664,29.2861799 21.4876813,31.3840947 21.4876813,33.9715459 C21.4876813,36.5589972 19.3897664,38.656912 16.8023152,38.656912 Z" id="Path-Copy-5" stroke="#000000" stroke-width="0.953846154"></path>
                        <path d="M6.68461538,28 C4.7517719,28 3.18461538,26.4328435 3.18461538,24.5 C3.18461538,22.5671565 4.7517719,21 6.68461538,21 C8.61745887,21 10.1846154,22.5671565 10.1846154,24.5 C10.1846154,26.4328435 8.61745887,28 6.68461538,28 Z" id="Path-Copy-10" fill="#FADB18"></path>
                        <path d="M5.35616133,28.1646044 C2.7687101,28.1646044 0.67079524,26.0666895 0.67079524,23.4792383 C0.67079524,20.891787 2.7687101,18.7938722 5.35616133,18.7938722 C7.94361257,18.7938722 10.0415274,20.891787 10.0415274,23.4792383 C10.0415274,26.0666895 7.94361257,28.1646044 5.35616133,28.1646044 Z" id="Path-Copy-6" stroke="#000000" stroke-width="0.953846154"></path>
                        <path d="M47.1789886,10.0415274 C44.5915374,10.0415274 42.4936225,7.94361257 42.4936225,5.35616133 C42.4936225,2.7687101 44.5915374,0.67079524 47.1789886,0.67079524 C49.7664398,0.67079524 51.8643547,2.7687101 51.8643547,5.35616133 C51.8643547,7.94361257 49.7664398,10.0415274 47.1789886,10.0415274 Z" id="Path-Copy-7" stroke="#000000" stroke-width="0.953846154"></path>
                    </g>
                </g>
                <line x1="38.4923077" y1="46.2153846" x2="51.8461538" y2="61.4769231" id="Line-6" stroke="#000000" stroke-width="0.953846154" stroke-linecap="square"></line>
                <line x1="10.568942" y1="26.7076923" x2="15.115773" y2="31.1298369" id="Path-38" stroke="#000000" stroke-width="0.953846154"></line>
                <line x1="22.1816015" y1="31.1298369" x2="29.1865424" y2="24.0789668" id="Path-39" stroke="#000000" stroke-width="0.953846154"></line>
                <line x1="36.0880025" y1="17.1646582" x2="45.2153846" y2="8.10769231" id="Path-40" stroke="#000000" stroke-width="0.953846154"></line>
                <line x1="53.4597243" y1="4.9850464" x2="59.6313826" y2="4.9850464" id="Path-42" stroke="#000000" stroke-width="0.953846154"></line>
            </g>
        </g>
    </g>
</svg>