<?xml version="1.0" encoding="UTF-8"?>
<svg width="66px" height="51px" viewBox="0 0 66 51" version="1.1" xmlns="http://www.w3.org/2000/svg" xmlns:xlink="http://www.w3.org/1999/xlink">
    <!-- Generator: Sketch 59.1 (86144) - https://sketch.com -->
    <title>Backend</title>
    <desc>Created with Sketch.</desc>
    <g id="Company" stroke="none" stroke-width="1" fill="none" fill-rule="evenodd">
        <g transform="translate(-1022.000000, -1845.000000)" fill-rule="nonzero" id="Backend">
            <g transform="translate(1023.000000, 1846.000000)">
                <g id="Group-12" transform="translate(22.608278, 29.323401)" fill="#FADB18">
                    <path d="M2.84217094e-14,13.6669902 L2.84217094e-14,16.0724753 C2.84217094e-14,17.8347354 4.25373134,19.2931576 9.54051173,19.2931576 C14.8272921,19.2931576 19.2318391,17.8347354 19.2318391,16.0724753 L19.2318391,13.6669902 C16.8011354,15.0646448 12.9434968,15.6115531 9.54051173,15.6115531 C6.13752665,15.6115531 2.43070362,15.0646448 2.84217094e-14,13.6669902 Z" id="Path-Copy-15"></path>
                    <path d="M2.84217094e-14,7.24109372 L2.84217094e-14,9.64657879 C2.84217094e-14,11.4088389 4.25373134,12.8672611 9.54051173,12.8672611 C14.8272921,12.8672611 19.2318391,11.4088389 19.2318391,9.64657879 L19.2318391,7.24109372 C16.8011354,8.6387483 12.9434968,9.18565662 9.54051173,9.18565662 C6.13752665,9.18565662 2.43070362,8.6387483 2.84217094e-14,7.24109372 Z" id="Path-Copy-14"></path>
                    <ellipse id="Oval-Copy-11" cx="9.54051173" cy="3.2206823" rx="9.54051173" ry="3.2206823"></ellipse>
                </g>
                <g id="Group-13" transform="translate(21.256503, 27.807249)" stroke="#000000">
                    <path d="M2.84217094e-14,13.9364392 L2.84217094e-14,17.6797228 C2.84217094e-14,19.618209 4.67910448,21.2224733 10.4945629,21.2224733 C16.3100213,21.2224733 20.9891258,19.618209 20.9891258,17.6797228 L20.9891258,13.9364392 C18.3153518,15.4738593 14.2378465,16.0754584 10.4945629,16.0754584 C6.75127932,16.0754584 2.67377399,15.4738593 2.84217094e-14,13.9364392 Z" id="Path"></path>
                    <path d="M2.84217094e-14,6.86795309 L2.84217094e-14,10.6112367 C2.84217094e-14,12.5497228 4.67910448,14.1539872 10.4945629,14.1539872 C16.3100213,14.1539872 20.9891258,12.5497228 20.9891258,10.6112367 L20.9891258,6.86795309 C18.3153518,8.40537313 14.2378465,9.00697228 10.4945629,9.00697228 C6.75127932,9.00697228 2.67377399,8.40537313 2.84217094e-14,6.86795309 Z" id="Path"></path>
                    <ellipse id="Oval" cx="10.4945629" cy="3.54275053" rx="10.4945629" ry="3.54275053"></ellipse>
                </g>
                <path d="M51.5369936,16.3100213 C50.8017058,16.3100213 50.0664179,16.3768657 49.3311301,16.5105544 C48.7295309,7.28603412 41.1092751,-7.10542736e-15 31.7510661,-7.10542736e-15 C23.3955224,-7.10542736e-15 16.44371,5.74861407 14.6389126,13.569403 C14.2378465,13.5025586 13.8367804,13.5025586 13.4357143,13.5025586 C6.01599147,13.5025586 -6.39488462e-14,19.5185501 -6.39488462e-14,26.9382729 C-6.39488462e-14,34.3579957 6.01599147,40.3739872 13.4357143,40.3739872 L18.3821962,40.3739872 L18.3821962,31.35 C18.3821962,26.6040512 25.6013859,24.9329424 31.7510661,24.9329424 C37.9007463,24.9329424 45.119936,26.6040512 45.119936,31.35 L45.119936,40.3071429 L51.5369936,40.3071429 C58.1545842,40.3071429 63.5021322,34.9595949 63.5021322,28.3420043 C63.5021322,21.7244136 58.1545842,16.3100213 51.5369936,16.3100213 Z" id="Path" stroke="#000000" fill="#FFFFFF"></path>
            </g>
        </g>
    </g>
</svg>