<?xml version="1.0" encoding="UTF-8"?>
<svg width="61px" height="60px" viewBox="0 0 61 60" version="1.1" xmlns="http://www.w3.org/2000/svg" xmlns:xlink="http://www.w3.org/1999/xlink">
    <!-- Generator: Sketch 59.1 (86144) - https://sketch.com -->
    <title>Cloud_Infra</title>
    <desc>Created with Sketch.</desc>
    <g id="Company" stroke="none" stroke-width="1" fill="none" fill-rule="evenodd">
        <g transform="translate(-776.000000, -2029.000000)" id="Cloud_Infra">
            <g transform="translate(777.000000, 2029.000000)">
                <g id="Group">
                    <g id="Group-10" transform="translate(1.536273, 30.636972)">
                        <path d="M6.46130965,0.0236803966 L3.58913534,4.22055153 C3.47529742,4.38689347 3.41438478,4.58375429 3.41438478,4.78531994 L3.41438478,12.6023571 L3.41438478,12.6023571" id="Path-37" stroke="#000000" stroke-linecap="round"></path>
                        <path d="M52.1075495,1.0658141e-13 L49.2083307,4.22005289 C49.0938453,4.38669586 49.0325611,4.58412739 49.0325611,4.78630747 L49.0325611,13.6549886 L49.0325611,13.6549886" id="Path-37-Copy" stroke="#000000" stroke-linecap="round" transform="translate(50.570055, 6.827494) scale(-1, 1) translate(-50.570055, -6.827494) "></path>
                        <path d="M20.342802,0.29030427 L20.342802,5.91111782 C20.342802,6.32165307 20.0918889,6.69048167 19.7100387,6.84124531 L15.4451743,8.5251167 C15.0633242,8.67588034 14.8124111,9.04470894 14.8124111,9.45524419 L14.8124111,20.6521464 L14.8124111,20.6521464" id="Path-41" stroke="#000000" stroke-linecap="round"></path>
                        <path d="M32.2915928,0.29030427 L32.2915928,9.8277706 C32.2915928,10.1574349 32.1291161,10.465919 31.8572649,10.6524009 L27.1955299,13.8502136 C26.9236788,14.0366955 26.761202,14.3451796 26.761202,14.6748439 L26.761202,21.2806775 L26.761202,21.2806775" id="Path-41-Copy-2" stroke="#000000" stroke-linecap="round"></path>
                        <path d="M44.2403837,0.29030427 L44.2403837,5.91111782 C44.2403837,6.32165307 43.9894706,6.69048167 43.6076205,6.84124531 L39.3427561,8.5251167 C38.960906,8.67588034 38.7099929,9.04470894 38.7099929,9.45524419 L38.7099929,21.704778 L38.7099929,21.704778" id="Path-41-Copy" stroke="#000000" stroke-linecap="round" transform="translate(41.475188, 10.997541) scale(-1, 1) translate(-41.475188, -10.997541) "></path>
                        <g id="Group-3" transform="translate(0.000000, 12.606272)">
                            <circle id="Oval-Copy-6" fill="#FADB18" cx="4.25320057" cy="3.59886202" r="2.63157895"></circle>
                            <circle id="Oval" stroke="#000000" cx="3.15789474" cy="3.15789474" r="3.15789474"></circle>
                            <circle id="Oval-Copy-7" fill="#FADB18" cx="15.8321479" cy="12.0199147" r="2.63157895"></circle>
                            <circle id="Oval-Copy-8" fill="#FADB18" cx="27.4110953" cy="13.0725462" r="2.63157895"></circle>
                            <circle id="Oval-Copy-9" fill="#FADB18" cx="45.3058321" cy="13.0725462" r="2.63157895"></circle>
                            <circle id="Oval-Copy-10" fill="#FADB18" cx="53.7268848" cy="4.6514936" r="2.63157895"></circle>
                            <circle id="Oval-Copy" stroke="#000000" cx="15.1635846" cy="11.1237553" r="3.15789474"></circle>
                            <circle id="Oval-Copy-2" stroke="#000000" cx="27.1123755" cy="12.1194879" r="3.15789474"></circle>
                            <circle id="Oval-Copy-3" stroke="#000000" cx="45.0355619" cy="12.1194879" r="3.15789474"></circle>
                            <circle id="Oval-Copy-5" stroke="#000000" cx="53.0014225" cy="4.15362731" r="3.15789474"></circle>
                        </g>
                    </g>
                    <path d="M51.0248265,17.3243284 C50.4479512,14.288822 49.5776653,11.7276134 46.8855807,10.1150006 C44.1934962,8.5023878 40.9245364,8.1229495 37.9440142,9.07154526 C34.4827626,1.48277913 26.9833843,-0.41441241 20.9261941,1.10334082 C15.1574415,2.62109405 9.292543,7.74351119 9.77327238,15.8065752 C7.17733371,15.4271369 5.82631838,16.0911539 3.80725497,17.6089072 C1.49975394,19.3163796 0.0575657895,22.1621669 0.0575657895,25.0079542 C0.0575657895,30.1303713 4.28798436,34.3041927 9.47986169,34.3041927 L50.3518053,34.3041927 C55.1590992,34.3041927 59.0049342,30.5098096 59.0049342,25.7668308 C59.0049342,21.4032902 55.4475368,17.7037667 51.0248265,17.3243284 Z" id="Path-Copy-8" stroke="#000000" fill="#FFFFFF" fill-rule="nonzero"></path>
                </g>
            </g>
        </g>
    </g>
</svg>