<?xml version="1.0" encoding="UTF-8"?>
<svg width="39px" height="77px" viewBox="0 0 39 77" version="1.1" xmlns="http://www.w3.org/2000/svg" xmlns:xlink="http://www.w3.org/1999/xlink">
    <!-- Generator: Sketch 59.1 (86144) - https://sketch.com -->
    <title>CRO</title>
    <desc>Created with Sketch.</desc>
    <g id="Company" stroke="none" stroke-width="1" fill="none" fill-rule="evenodd">
        <g transform="translate(-292.000000, -2020.000000)" fill-rule="nonzero" id="CRO">
            <g transform="translate(292.000000, 2021.000000)">
                <g id="Group">
                    <path d="M28.432559,10.4080275 C28.5670959,11.5393681 28.2980221,12.5952861 27.6253375,13.5757813 L26.818116,14.707122 C31.526908,15.5367718 34.015841,17.1206487 34.2849148,17.8748758 C33.9485725,18.9307938 28.2980221,21.5705887 19.5531225,21.5705887 C10.7409546,21.5705887 5.09040409,18.8553711 4.82133026,17.8748758 C5.02313564,17.1206487 7.51206858,15.4613491 12.2881291,14.6316993 L11.548176,13.5003586 C10.9427599,12.5952861 10.6736861,11.4639454 10.7409546,10.3326048 C5.22494101,11.4639454 0.852491249,13.8774722 0.852491249,17.7994531 L0.852491249,21.7968568 C0.852491249,25.4925696 2.19786041,29.1128597 4.55225643,31.6772319 L13.7007667,41.7838751 C14.1716459,42.3118341 14.4407197,43.0660612 14.4407197,43.8202883 L14.4407197,50.7591777 C15.7188204,50.155796 18.1404849,49.8541052 19.620391,49.8541052 C21.0330286,49.8541052 23.5219615,50.155796 24.7327938,50.7591777 L24.7327938,43.895711 C24.7327938,43.1414839 25.0018676,42.3872568 25.4727468,41.8592979 L34.6212571,31.7526546 C36.9756531,29.1128597 38.3210223,25.5679923 38.3210223,21.8722795 L38.3210223,17.8748758 C38.3210223,13.9528949 33.9485725,11.5393681 28.432559,10.4080275 Z" id="Path-Copy" stroke="#000000" fill="#FFFFFF"></path>
                    <path d="M18.703197,17.3305651 C19.1672307,18.0426863 19.962717,18.0426863 20.4267506,17.3305651 L24.3378917,12.5374416 C24.8682159,11.5582749 24.4041822,10.2230477 23.4761148,10.2230477 L21.8188517,10.2230477 L21.8188517,1.86931816 C21.8188517,1.06818181 21.354818,0.445075752 20.7582033,0.445075752 L18.5043254,0.445075752 C17.9077107,0.445075752 17.443677,1.06818181 17.443677,1.86931816 L17.443677,10.1340325 L15.7864138,10.1340325 C14.8583465,10.1340325 14.3943128,11.5582749 14.924637,12.4484264 L18.703197,17.3305651 Z" id="Path" stroke="#000000" fill="#FFFFFF"></path>
                    <path d="M20.0352563,56.298659 C14.8834904,56.298659 10.6544288,60.5277206 10.6544288,65.6794865 C10.6544288,70.8312524 14.8834904,75.060314 20.0352563,75.060314 C25.1870222,75.060314 29.4160838,70.8312524 29.4160838,65.6794865 C29.4160838,60.5277206 25.1870222,56.298659 20.0352563,56.298659 Z" id="Path" fill="#FADB18"></path>
                    <path d="M19.5422492,53.3406171 C13.5782341,53.3406171 8.68240083,58.2364504 8.68240083,64.2004654 C8.68240083,70.1644805 13.5782341,75.0603138 19.5422492,75.0603138 C25.5062643,75.0603138 30.4020975,70.1644805 30.4020975,64.2004654 C30.4020975,58.2364504 25.5062643,53.3406171 19.5422492,53.3406171 Z" id="Path-Copy-2" stroke="#000000"></path>
                </g>
                <path d="M20.1250473,70.1899071 L20.1250473,68.8479404 C21.22302,68.6446121 21.7381183,68.4277286 22.1854405,68.0210721 C22.646318,67.587305 22.8767567,66.963765 22.8767567,66.1911175 C22.8767567,64.4831599 21.6432318,63.9680616 20.1250473,63.0598619 L20.1250473,60.159045 C21.0874678,60.3217076 21.6432318,60.9316925 21.9956675,62.32788 L22.2803271,62.32788 L22.2803271,60.4165942 C21.6432318,60.037048 21.1959096,59.8608302 20.1250473,59.7117228 L20.1250473,58.6815261 L19.365955,58.6815261 L19.365955,59.7388332 C18.7559701,59.8066093 18.4577553,59.8608302 18.064654,60.0777137 C17.2920065,60.4979255 16.8717947,61.1892416 16.8717947,62.1245518 C16.8717947,63.3309663 17.5631108,64.117169 19.365955,65.0524791 L19.365955,68.4412838 C18.3628688,68.2515108 17.7799944,67.6279707 17.386893,66.1504518 L17.1022334,66.1233414 L17.1022334,68.265066 C18.2137614,68.7259434 18.5255314,68.8072748 19.365955,68.8479404 L19.365955,70.1899071 L20.1250473,70.1899071 Z M19.365955,62.693871 C18.5526418,62.4092114 18.1595405,62.1109965 18.1595405,61.3790147 C18.1595405,60.7961403 18.5119762,60.3352628 19.365955,60.1183793 L19.365955,62.693871 Z M20.1250473,68.4412838 L20.1250473,65.4726909 C21.2094648,66.0826757 21.3856826,66.2995592 21.3856826,67.0315411 C21.3856826,67.6550811 20.9925813,68.2786212 20.1250473,68.4412838 Z" id="$" stroke="#FADB18" stroke-width="0.2" fill="#000000"></path>
            </g>
        </g>
    </g>
</svg>