<?xml version="1.0" encoding="UTF-8"?>
<svg width="58px" height="61px" viewBox="0 0 58 61" version="1.1" xmlns="http://www.w3.org/2000/svg" xmlns:xlink="http://www.w3.org/1999/xlink">
    <!-- Generator: Sketch 59.1 (86144) - https://sketch.com -->
    <title>Design</title>
    <desc>Created with Sketch.</desc>
    <g id="Company" stroke="none" stroke-width="1" fill="none" fill-rule="evenodd">
        <g transform="translate(-530.000000, -1840.000000)" id="Design">
            <g transform="translate(531.000000, 1841.000000)">
                <g id="Group" transform="translate(29.446343, 7.703790)">
                    <path d="M22.6039645,1.03896104 L4.59330144,1.03896104 C2.63349282,1.03896104 1.03896104,2.63349282 1.03896104,4.59330144 L1.03896104,47.4652085 C1.03896104,49.4250171 2.63349282,51.0195489 4.59330144,51.0195489 L22.6039645,51.0195489 C24.5637731,51.0195489 26.1583049,49.4250171 26.1583049,47.4652085 L26.1583049,4.59330144 C26.1583049,2.63349282 24.5637731,1.03896104 22.6039645,1.03896104 Z M13.5989064,1.42118934 C13.9029392,1.42118934 14.1501025,1.6683527 14.1501025,1.97238551 C14.1501025,2.27641832 13.9029392,2.52358168 13.5989064,2.52358168 C13.2948735,2.52358168 13.0477102,2.27641832 13.0477102,1.97238551 C13.0477102,1.6683527 13.2948735,1.42118934 13.5989064,1.42118934 Z M11.3088175,3.15352016 L15.8889952,3.15352016 C16.0869446,3.15352016 16.242242,3.29678742 16.242242,3.47942584 C16.242242,3.66206425 16.0869446,3.80533151 15.8889952,3.80533151 L11.3088175,3.80533151 C11.1108681,3.80533151 10.9555707,3.66206425 10.9555707,3.47942584 C10.9555707,3.29678742 11.1108681,3.15352016 11.3088175,3.15352016 Z M9.51852358,3.20601504 L9.82747779,3.17047163 L10.1008886,3.17047163 L10.136432,3.47942584 L10.136432,3.75283664 L9.82747779,3.78838004 L9.55406699,3.78838004 L9.51852358,3.47942584 L9.51852358,3.20601504 Z M13.5989064,50.1834586 C12.2920027,50.1834586 11.2289815,49.1204375 11.2289815,47.8140807 C11.2289815,46.507177 12.2920027,45.4447027 13.5989064,45.4447027 C14.9052632,45.4447027 15.9682843,46.5077239 15.9682843,47.8140807 C15.9682843,49.1204375 14.9052632,50.1834586 13.5989064,50.1834586 Z M25.5157895,44.9919344 L1.68202324,44.9919344 L1.68202324,5.53000684 L25.5157895,5.53000684 L25.5157895,44.9919344 Z" id="Shape"></path>
                    <path d="M22.2955571,0.0694463431 L4.28489405,0.0694463431 C2.02323992,0.0694463431 0.183732057,1.9089542 0.183732057,4.17060834 L0.183732057,47.0425154 C0.183732057,49.3041695 2.02323992,51.1436774 4.28489405,51.1436774 L22.2955571,51.1436774 C24.5572112,51.1436774 26.3967191,49.3041695 26.3967191,47.0425154 L26.3967191,4.17060834 C26.3967191,1.90950103 24.5572112,0.0694463431 22.2955571,0.0694463431 Z" id="Shape" stroke="#000000" fill-rule="nonzero"></path>
                    <polygon id="Path" stroke="#000000" fill="#FFFFFF" fill-rule="nonzero" points="2.05714286 44.5692413 24.5238551 44.5692413 24.5238551 5.10731374 2.05714286 5.10731374"></polygon>
                    <path d="M12.9872496,45.796309 C11.8563188,45.796309 10.936432,46.7163019 10.936432,47.84689 C10.936432,48.977478 11.8563188,49.897471 12.9872496,49.897471 C14.1177072,49.897471 15.037594,48.977478 15.037594,47.84689 C15.037594,46.7163019 14.1177072,45.796309 12.9872496,45.796309 Z M12.9872496,49.4246968 C12.1175212,49.4246968 11.4096248,48.7171919 11.4096248,47.8473632 C11.4096248,46.9775345 12.1175212,46.2700296 12.9872496,46.2700296 C13.8569779,46.2700296 14.5644012,46.9780077 14.5644012,47.8473632 C14.5644012,48.7167187 13.8569779,49.4246968 12.9872496,49.4246968 Z" id="Shape" fill="#000000" fill-rule="nonzero"></path>
                    <path d="M10.7581473,2.88865869 L15.338325,2.88865869 C15.5362744,2.88865869 15.6915717,2.74539143 15.6915717,2.56275301 C15.6915717,2.3801146 15.5362744,2.23684734 15.338325,2.23684734 L10.7581473,2.23684734 C10.5601978,2.23684734 10.4049005,2.3801146 10.4049005,2.56275301 C10.4049005,2.74539143 10.5601978,2.88865869 10.7581473,2.88865869 Z" id="Path" fill="#000000" fill-rule="nonzero"></path>
                </g>
                <g id="Group-5" transform="translate(37.402597, 25.974026)" stroke="#000000">
                    <circle id="Oval" cx="5.48188653" cy="4.4429255" r="4.4429255"></circle>
                    <line x1="0.3417635" y1="11.7703349" x2="11.0184552" y2="11.5443307" id="Line-5" stroke-linecap="round"></line>
                </g>
                <polygon id="Path" fill="#FADB18" fill-rule="nonzero" points="2.85714286 48.1011828 17.1428571 48.1011828 17.1428571 22.3868971 2.85714286 22.3868971"></polygon>
                <g id="Group-3" transform="translate(0.000000, 19.740260)" stroke="#000000">
                    <polygon id="Rectangle" points="4.75241097e-14 -7.10542736e-15 16.760082 -7.10542736e-15 16.760082 28.5838563 4.75241097e-14 28.5838563"></polygon>
                    <g id="Group-4" transform="translate(4.155844, 8.311688)">
                        <circle id="Oval" fill="#FFFFFF" cx="4.13554548" cy="3.09658444" r="3.09658444"></circle>
                        <line x1="9.32587341e-14" y1="8.83116883" x2="8.27109095" y2="8.83116883" id="Line-5" stroke-linecap="round"></line>
                    </g>
                </g>
                <polyline id="Path-34" stroke="#000000" points="7.86056049 14.8616844 7.62236169 0 39.0157211 0 39.0157211 3.63950542"></polyline>
                <circle id="Oval" stroke="#000000" fill="#FFFFFF" cx="7.86056049" cy="15.5643501" r="1.0252905"></circle>
                <polyline id="Path-36" stroke="#000000" stroke-linecap="round" points="37.899836 2.91910062 39.0157211 4.00705013 40.0464798 2.91910062"></polyline>
            </g>
        </g>
    </g>
</svg>