<?xml version="1.0" encoding="UTF-8"?>
<svg width="61px" height="56px" viewBox="0 0 61 56" version="1.1" xmlns="http://www.w3.org/2000/svg" xmlns:xlink="http://www.w3.org/1999/xlink">
    <!-- Generator: Sketch 59.1 (86144) - https://sketch.com -->
    <title>Front_End</title>
    <desc>Created with Sketch.</desc>
    <g id="Company" stroke="none" stroke-width="1" fill="none" fill-rule="evenodd">
        <g transform="translate(-776.000000, -1843.000000)" id="Front_End">
            <g transform="translate(777.000000, 1843.000000)">
                <g id="touchscreen" transform="translate(0.000000, 3.218182)" fill="#FFFFFF" fill-rule="nonzero" stroke="#000000">
                    <path d="M56.7152266,39.2568662 L2.28477336,39.2568662 C1.08229561,39.2568662 0.107589683,38.2821603 0.107589683,37.0796825 L0.107589683,2.18054714 C0.107589683,0.978069383 1.08229561,0.0033634594 2.28477336,0.0033634594 L56.7153497,0.0033634594 C57.9178274,0.0033634594 58.8925334,0.978069383 58.8925334,2.18054714 L58.8925334,37.0795595 C58.8925334,38.2821603 57.9178274,39.2568662 56.7152266,39.2568662 Z" id="Path"></path>
                </g>
                <g id="Group-7" transform="translate(16.275862, 0.684326)">
                    <g id="Group-14" transform="translate(7.008945, 0.000000)">
                        <circle id="Oval" stroke="#000000" stroke-width="0.8" fill="#FFFFFF" cx="10.1724138" cy="10.1724138" r="10.1724138"></circle>
                        <path d="M7.97151181,12.2395155 C7.97151181,11.9942423 7.83181189,11.7703864 7.61148688,11.6626095 L5.01731814,10.3936149 L5.01731814,10.3936149 L5.01731814,10.3484552 L7.61148688,9.07946059 C7.83181189,8.97168377 7.97151181,8.74782782 7.97151181,8.5025546 C7.97151181,8.36402553 7.85921181,8.25172552 7.72068273,8.25172552 C7.68269567,8.25172552 7.64520479,8.2603536 7.61103919,8.27695867 L4.06896552,9.99846796 L4.06896552,9.99846796 L4.06896552,10.7436022 L7.61103919,12.4651115 C7.73563238,12.5256659 7.8857242,12.4737523 7.94627866,12.3491591 C7.96288373,12.3149935 7.97151181,12.2775026 7.97151181,12.2395155 Z M9.26586908,13.7273712 L12.0398628,6.42009686 C12.0856714,6.29942763 12.0249848,6.16447073 11.9043156,6.11866217 C11.8778189,6.10860348 11.8497135,6.10344828 11.8213719,6.10344828 C11.6174867,6.10344828 11.4348286,6.22948433 11.3624681,6.42009686 L8.58847435,13.7273712 C8.5426658,13.8480405 8.60335236,13.9829974 8.72402159,14.0288059 C8.75051827,14.0388646 8.77862362,14.0440198 8.80696531,14.0440198 C9.01085051,14.0440198 9.19350859,13.9179838 9.26586908,13.7273712 Z M13.0511677,12.4651115 L16.5932414,10.7436022 L16.5932414,10.7436022 L16.5932414,9.99846796 L13.0511677,8.27695867 C12.9265745,8.21640422 12.7764827,8.26831788 12.7159282,8.39291107 C12.6993232,8.42707666 12.6906951,8.46456755 12.6906951,8.5025546 C12.6906951,8.74782782 12.830395,8.97168377 13.05072,9.07946059 L15.6448888,10.3484552 L15.6448888,10.3484552 L15.6448888,10.3936149 L13.05072,11.6626095 C12.830395,11.7703864 12.6906951,11.9942423 12.6906951,12.2395155 C12.6906951,12.3780446 12.8029951,12.4903446 12.9415242,12.4903446 C12.9795112,12.4903446 13.0170021,12.4817165 13.0511677,12.4651115 Z" id="&lt;/&gt;" fill="#000000" fill-rule="nonzero"></path>
                    </g>
                    <path d="M18.7764815,48.7664621 L19.3030444,42.7701443 C19.3030444,41.6125958 18.4700777,40.5578049 17.3183325,40.4425403 C15.9936904,40.309966 14.8772649,41.3466468 14.8772649,42.6439736 L14.8772649,41.8849484 C14.8772649,40.7273999 14.0442982,39.672609 12.892553,39.5573444 C11.5679109,39.4247701 10.4514854,40.4614509 10.4514854,41.7587777 L10.4514854,40.9997525 C10.4514854,39.842204 9.61851878,38.787413 8.46677354,38.6721485 C7.14213143,38.5395742 6.02570598,39.576255 6.02570598,40.8735818 L6.02570598,28.6072098 C6.02570598,27.4496613 5.19273932,26.3948703 4.04099408,26.2796058 C2.71635197,26.1470315 1.59992652,27.1837123 1.59992652,28.4810391 L1.07336363,48.7660619 C4.02497678,53.139967 5.14869677,54.4014996 10.0373355,54.4014996 C14.9258742,54.4017996 15.5640768,53.5429212 18.7764815,48.7664621 Z" id="Path" fill="#FADB18" fill-rule="nonzero" transform="translate(10.188204, 40.334830) scale(-1, 1) rotate(-2.000000) translate(-10.188204, -40.334830) "></path>
                    <path d="M18.7203592,45.5473007 L19.2469221,39.5509829 C19.2469221,38.3934344 18.4139555,37.3386434 17.2622102,37.2233789 C15.9375681,37.0908046 14.8211426,38.1274854 14.8211426,39.4248122 L14.8211426,38.6657869 C14.8211426,37.5082384 13.988176,36.4534475 12.8364307,36.3381829 C11.5117886,36.2056087 10.3953632,37.2422894 10.3953632,38.5396163 L10.3953632,37.780591 C10.3953632,36.6230425 9.56239653,35.5682516 8.41065129,35.452987 C7.08600918,35.3204128 5.96958373,36.3570935 5.96958373,37.6544203 L5.96958373,25.3880483 C5.96958373,24.2304998 5.13661707,23.1757089 3.98487183,23.0604443 C2.66022972,22.9278701 1.54380426,23.9645508 1.54380426,25.2618776 L1.01724138,45.5469004 C1.01724138,50.4355392 4.98026159,54.3985594 9.86890036,54.3985594 C14.7574391,54.3985594 18.7203592,50.4359394 18.7203592,45.5473007 Z" id="Path-Copy-3" stroke="#000000" fill-rule="nonzero" transform="translate(10.132082, 38.723779) scale(-1, 1) rotate(-2.000000) translate(-10.132082, -38.723779) "></path>
                </g>
            </g>
        </g>
    </g>
</svg>