<?xml version="1.0" encoding="UTF-8"?>
<svg width="62px" height="49px" viewBox="0 0 62 49" version="1.1" xmlns="http://www.w3.org/2000/svg" xmlns:xlink="http://www.w3.org/1999/xlink">
    <!-- Generator: Sketch 59.1 (86144) - https://sketch.com -->
    <title>Strategy</title>
    <desc>Created with Sketch.</desc>
    <g id="Company" stroke="none" stroke-width="1" fill="none" fill-rule="evenodd">
        <g transform="translate(-281.000000, -1847.000000)" id="Strategy">
            <g transform="translate(282.000000, 1847.000000)">
                <rect id="Rectangle" stroke="#000000" fill="#FFFFFF" x="11.2563025" y="0.949579832" width="37.8151261" height="21" rx="1.76470588"></rect>
                <path d="M29.277209,42 L33.2352941,42 C34.2099143,42 35,42.7900857 35,43.7647059 L35,46.2352941 C35,47.2099143 34.2099143,48 33.2352941,48 L29.277209,48 C28.3025888,48 27.5125031,47.2099143 27.5125031,46.2352941 L27.5125031,43.7647059 C27.5125031,42.7900857 28.3025888,42 29.277209,42 Z" id="Rectangle-Copy-7" fill="#FADB18"></path>
                <path d="M53.7647059,42 L58.2352941,42 C59.2099143,42 60,42.7900857 60,43.7647059 L60,46.2352941 C60,47.2099143 59.2099143,48 58.2352941,48 L53.7647059,48 C52.7900857,48 52,47.2099143 52,46.2352941 L52,43.7647059 C52,42.7900857 52.7900857,42 53.7647059,42 Z" id="Rectangle-Copy-8" fill="#FADB18"></path>
                <path d="M27.4033613,40.8571429 L33.5546218,40.8571429 C34.529242,40.8571429 35.3193277,41.6472286 35.3193277,42.6218487 L35.3193277,46.6554622 C35.3193277,47.6300823 34.529242,48.4201681 33.5546218,48.4201681 L27.4033613,48.4201681 C26.4287412,48.4201681 25.6386555,47.6300823 25.6386555,46.6554622 L25.6386555,42.6218487 C25.6386555,41.6472286 26.4287412,40.8571429 27.4033613,40.8571429 Z" id="Rectangle-Copy" stroke="#000000"></path>
                <path d="M51.7815126,40.8571429 L57.9327731,40.8571429 C58.9073933,40.8571429 59.697479,41.6472286 59.697479,42.6218487 L59.697479,46.6554622 C59.697479,47.6300823 58.9073933,48.4201681 57.9327731,48.4201681 L51.7815126,48.4201681 C50.8068925,48.4201681 50.0168067,47.6300823 50.0168067,46.6554622 L50.0168067,42.6218487 C50.0168067,41.6472286 50.8068925,40.8571429 51.7815126,40.8571429 Z" id="Rectangle-Copy-2" stroke="#000000"></path>
                <path d="M3.76470588,42 L8.23529412,42 C9.20991426,42 10,42.7900857 10,43.7647059 L10,46.2352941 C10,47.2099143 9.20991426,48 8.23529412,48 L3.76470588,48 C2.79008574,48 2,47.2099143 2,46.2352941 L2,43.7647059 C2,42.7900857 2.79008574,42 3.76470588,42 Z" id="Rectangle-Copy-6" fill="#FADB18"></path>
                <path d="M1.76470588,40.8571429 L7.91596639,40.8571429 C8.89058653,40.8571429 9.68067227,41.6472286 9.68067227,42.6218487 L9.68067227,46.6554622 C9.68067227,47.6300823 8.89058653,48.4201681 7.91596639,48.4201681 L1.76470588,48.4201681 C0.790085736,48.4201681 3.41401149e-16,47.6300823 0,46.6554622 L0,42.6218487 C-1.19356544e-16,41.6472286 0.790085736,40.8571429 1.76470588,40.8571429 Z" id="Rectangle-Copy-3" stroke="#000000"></path>
                <line x1="30.1638655" y1="22.2647059" x2="30.1638655" y2="40.8571429" id="Line" stroke="#000000" stroke-linecap="square"></line>
                <path d="M5.20588235,32.3487395 L55.1218487,32.3487395 M5.20588235,32.9789916 L5.20588235,40.5420168 M55.1218487,32.9789916 L55.1218487,40.5420168" id="Combined-Shape" stroke="#000000" stroke-linecap="square"></path>
            </g>
        </g>
    </g>
</svg>