<?xml version="1.0" encoding="UTF-8"?>
<svg width="60px" height="53px" viewBox="0 0 60 53" version="1.1" xmlns="http://www.w3.org/2000/svg" xmlns:xlink="http://www.w3.org/1999/xlink">
    <!-- Generator: Sketch 59.1 (86144) - https://sketch.com -->
    <title>Support</title>
    <desc>Created with Sketch.</desc>
    <g id="Company" stroke="none" stroke-width="1" fill="none" fill-rule="evenodd">
        <g transform="translate(-1025.000000, -2031.000000)" fill-rule="nonzero" id="Support">
            <g transform="translate(1025.000000, 2032.000000)">
                <path d="M50.502998,42.5341654 C48.034395,44.0116037 45.6943961,43.8774527 43.0659746,43.8240053 C42.3417022,43.8240053 42.0078868,45.4257446 41.2836144,45.4257446 C41.0405394,45.4094498 40.8038227,45.5101449 40.6423316,45.6985351 C39.0089465,47.4755702 37.6661785,49.4527337 36.0441102,51.2219749 C35.73743,51.595746 34.982922,51.6015268 34.5086501,51.6063977 C34.1124994,51.6054829 33.9937363,51.4192741 34.003895,51.0101556 C33.1375427,49.7660063 33.7229972,43.109651 33.4476228,43.0550929 C33.2030421,42.6923335 26.5490777,39.7779869 25.7683125,32.14017 C24.9875474,24.5023531 29.56499,19.0124885 29.6174233,18.8188605 C29.7289693,18.4003059 30.7286714,17.9752079 31.2913128,18.898047 C32.052985,20.1473345 32.6285676,22.9921638 34.0162701,25.5420593 C35.5754015,28.4069545 38.0432676,31.0225611 40.6890277,32.9756858 C43.67022,35.1764297 47.6480459,35.6982995 50.8742183,35.7781602 C52.9688746,35.8300113 54.785701,35.3779461 55.6743061,36.1590997 C56.1416948,36.569971 55.8011592,37.0471415 55.3979563,37.735952 C54.3370581,39.5483342 51.368284,42.0162989 50.502998,42.5341654 Z" id="Path" fill="#FADB18" transform="translate(40.789443, 34.976899) scale(-1, 1) rotate(4.000000) translate(-40.789443, -34.976899) "></path>
                <path d="M39.2535162,28.7652632 C36.4749365,31.504084 32.7147792,33.0042754 28.8214613,32.9273442 C27.7486415,32.9273442 26.6702341,32.9273442 25.5974143,32.9273442 C25.2373624,32.9038898 24.8867285,33.0488284 24.6475218,33.3199934 C22.2280896,35.8778221 19.7863071,38.418823 17.3836378,40.9654332 C16.9293713,41.5034319 16.2645888,41.8166411 15.5620792,41.8236521 C14.9752857,41.8223354 14.4138188,41.5835072 14.0047167,41.1612051 C13.5956146,40.7389031 13.3734541,40.1688196 13.3885016,39.5799427 C13.3885016,37.4596373 13.3885016,35.3412016 13.3885016,33.2246357 C13.3885016,32.820768 13.2767495,32.6637084 12.8688545,32.5851785 C6.91246965,31.0482376 3.28052766,27.1497924 1.51484509,21.3666314 C1.23234721,20.2741263 1.00667539,19.1676031 0.838745122,18.0515507 L0.838745122,14.9776688 C0.946462714,13.9992526 1.13333315,13.0312615 1.39750543,12.0832836 C2.85586983,6.7656923 5.99610275,2.91212136 11.2260992,0.909610694 C12.7294966,0.350128345 14.3219625,0.070698654 15.9252734,0.0850474792 C20.1327385,0.0850474792 24.3457912,0.0850474792 28.5588439,0.0850474792 C34.4370023,0.0570011114 38.8344459,2.68214114 41.8517516,7.60147406 C45.9347662,14.4169189 44.8627508,23.1489636 39.2535162,28.7652632 Z" id="Path-Copy-9" stroke="#000000" fill="#FFFFFF"></path>
                <path d="M54.9014206,20.4752475 C53.2271624,18.9693335 51.1606041,17.9684423 48.9410245,17.5884632 C48.9410245,17.7511838 48.8988377,17.8476108 48.8867843,17.9380112 C48.6859243,20.8467322 47.8639,23.6786059 46.4761085,26.2427895 C42.7516143,32.9926819 37.1046061,36.6810159 29.2759363,36.777443 C28.4502798,36.777443 27.6246233,36.777443 26.7989669,36.777443 C26.1239776,36.777443 25.8226431,37.2957383 26.1661644,37.8562204 C28.0705984,40.9659923 30.7343952,43.0934137 34.3805424,43.7262161 C35.9577803,43.9195891 37.546981,43.9981427 39.1356005,43.961257 C39.5058366,43.938453 39.8659523,44.0873897 40.1119242,44.3650452 C41.1726216,45.4980628 42.2574257,46.6069737 43.3301765,47.727938 C44.155833,48.5897546 44.9754628,49.4696513 45.825226,50.3194146 C46.5734598,51.1778188 47.875006,51.269439 48.7361171,50.524322 C49.241561,50.0647471 49.5062757,49.3973992 49.4532932,48.7163151 C49.4532932,47.2879897 49.4532932,45.8536375 49.4532932,44.4253121 C49.4532932,43.9130435 49.591907,43.7322428 50.0981489,43.5393887 C51.3478661,43.1407271 52.5455879,42.5944688 53.6659492,41.9121825 C60.7653896,37.0305639 61.3861386,26.2367628 54.9014206,20.4752475 Z" id="Path" stroke="#000000"></path>
            </g>
        </g>
    </g>
</svg>